<?xml version="1.0" standalone="no"?>
<!DOCTYPE svg PUBLIC "-//W3C//DTD SVG 20010904//EN"
 "http://www.w3.org/TR/2001/REC-SVG-20010904/DTD/svg10.dtd">
<svg version="1.0" xmlns="http://www.w3.org/2000/svg"
 width="499.000000pt" height="674.000000pt" viewBox="0 0 499.000000 674.000000"
 preserveAspectRatio="xMidYMid meet">

<g transform="translate(0.000000,674.000000) scale(0.100000,-0.100000)"
fill="#000000" stroke="none">
<path d="M2402 6090 c-23 -44 -42 -87 -42 -96 0 -10 -16 -37 -36 -61 -40 -49
-51 -50 -117 -5 -21 14 -53 26 -71 26 -24 1 -32 5 -28 14 3 10 -3 13 -24 10
-22 -2 -34 -12 -49 -42 -21 -40 -28 -48 -186 -212 -52 -54 -141 -152 -198
-216 -57 -65 -115 -125 -129 -134 -23 -15 -72 -16 -526 -13 l-501 4 -5 -2350
c-3 -1292 -3 -2366 0 -2385 5 -33 8 -35 46 -36 65 -1 156 -56 212 -128 26 -34
55 -73 65 -89 17 -27 18 -27 55 -12 20 9 72 32 114 53 79 38 106 69 122 136 4
17 15 41 25 55 34 50 33 58 -12 75 -115 45 -177 218 -96 265 38 21 42 33 44
116 2 97 25 217 39 206 6 -5 27 -12 47 -16 29 -5 38 -3 43 10 3 9 4 21 0 26
-3 5 -1 9 4 9 5 0 12 44 16 97 3 54 7 111 9 127 2 27 -2 31 -35 39 -50 12
-102 70 -95 106 3 14 0 35 -6 46 -6 11 -11 67 -12 127 0 98 -2 108 -24 132
-13 14 -36 28 -51 31 -15 3 -36 15 -46 26 -14 16 -15 23 -5 45 8 19 16 24 29
19 22 -10 41 -10 74 -2 21 6 32 2 50 -16 13 -13 39 -34 58 -47 19 -13 51 -38
70 -56 34 -33 146 -84 181 -84 10 0 21 5 24 11 5 7 14 4 27 -8 11 -10 21 -16
22 -14 0 2 23 1 50 -3 31 -5 58 -3 77 4 21 9 45 10 86 3 64 -11 272 -2 349 15
60 14 222 39 369 58 61 7 133 18 160 24 28 5 84 17 125 25 41 9 125 24 185 35
108 19 223 48 277 69 16 6 76 24 135 40 116 31 184 54 249 83 22 10 44 18 48
18 5 0 65 28 134 62 135 68 222 138 223 180 3 117 32 169 171 300 83 79 121
123 160 188 48 81 82 129 191 277 27 35 46 71 43 78 -3 8 0 15 6 17 8 3 13 68
16 202 l5 198 -24 -3 c-13 -2 -30 0 -37 5 -7 4 -28 2 -47 -4 -31 -10 -38 -8
-89 25 -65 44 -146 147 -175 226 -35 92 -24 215 25 272 10 12 28 36 38 52 11
17 36 51 58 76 21 26 38 54 38 62 0 19 -53 123 -80 157 -11 14 -30 40 -43 59
-34 53 -241 222 -322 264 -27 14 -62 39 -77 55 -15 16 -40 33 -54 36 -15 4
-39 16 -52 27 -14 10 -31 19 -38 19 -21 0 -119 49 -142 71 -29 26 -46 24 -75
-10 l-25 -30 -22 24 c-19 20 -22 31 -17 62 4 21 11 39 17 41 14 5 13 35 -2 50
-8 8 -8 15 0 25 14 16 17 53 7 83 -5 16 2 26 33 46 39 26 57 64 41 89 -4 7 -6
30 -4 51 l4 38 -39 0 c-21 0 -50 4 -64 10 -16 6 -27 6 -31 0 -10 -17 -25 -11
-25 9 0 12 -9 23 -22 27 -13 4 -34 15 -48 25 -14 11 -38 20 -55 22 -16 2 -47
11 -69 20 -21 9 -42 17 -47 17 -5 0 -14 11 -21 25 -8 18 -21 26 -53 31 -32 4
-53 16 -81 45 -21 21 -42 39 -46 39 -4 0 -8 -15 -8 -32 l-1 -33 -22 26 c-12
14 -27 35 -33 45 -9 16 -14 17 -27 6 -13 -11 -21 -7 -51 25 -20 21 -36 41 -36
45 0 15 -33 38 -70 48 -29 8 -54 28 -101 80 -34 39 -67 70 -74 70 -6 0 -30
-36 -53 -80z"/>
</g>
</svg>
