<?xml version="1.0" standalone="no"?>
<!DOCTYPE svg PUBLIC "-//W3C//DTD SVG 20010904//EN"
 "http://www.w3.org/TR/2001/REC-SVG-20010904/DTD/svg10.dtd">
<svg version="1.0" xmlns="http://www.w3.org/2000/svg"
 width="332.000000pt" height="368.000000pt" viewBox="0 0 332.000000 368.000000"
 preserveAspectRatio="xMidYMid meet">

<g transform="translate(0.000000,368.000000) scale(0.100000,-0.100000)"
fill="#000000" stroke="none">
<path d="M1588 2971 c-16 -23 -101 -66 -315 -160 l-142 -63 -25 -51 c-13 -29
-45 -101 -71 -162 -26 -60 -62 -144 -80 -185 -55 -123 -145 -329 -183 -420
l-35 -85 -5 -284 -4 -283 358 -362 c276 -277 365 -361 383 -361 20 0 52 35
165 181 127 163 187 237 275 344 19 24 47 41 83 53 88 30 102 30 191 3 102
-31 117 -32 216 -6 108 27 142 44 173 83 14 18 51 47 82 63 40 21 58 36 62 54
14 63 23 77 69 108 28 19 56 37 64 41 7 5 17 26 20 47 5 34 10 39 36 42 37 5
55 19 55 43 0 21 -21 25 -51 9 -15 -9 -26 -6 -48 10 -16 11 -41 20 -55 20 -67
0 -1 42 87 55 39 6 48 12 53 32 4 16 0 31 -13 46 -11 12 -28 44 -38 72 -25 66
-98 145 -136 145 -15 0 -31 -4 -34 -10 -3 -5 -27 -10 -52 -10 -45 0 -45 0 -37
28 4 15 8 43 7 63 -1 30 4 39 23 48 31 14 30 36 -2 57 -17 12 -24 24 -21 36 6
22 -19 38 -60 38 -34 0 -60 14 -44 24 6 4 11 16 11 27 0 25 -30 25 -52 -1 -24
-28 -63 -12 -113 47 -22 25 -85 91 -140 145 -77 77 -116 107 -172 133 -49 24
-84 49 -112 82 -22 27 -41 52 -41 57 0 22 -52 75 -79 81 -16 3 -39 15 -52 26
-28 24 -44 24 -69 -1 -11 -11 -24 -20 -28 -20 -5 0 -17 9 -27 20 -10 11 -26
20 -36 20 -29 0 -32 19 -4 30 21 8 26 16 23 38 -4 35 -40 42 -60 13z"/>
</g>
</svg>
