<?xml version="1.0" standalone="no"?>
<!DOCTYPE svg PUBLIC "-//W3C//DTD SVG 20010904//EN"
 "http://www.w3.org/TR/2001/REC-SVG-20010904/DTD/svg10.dtd">
<svg version="1.0" xmlns="http://www.w3.org/2000/svg"
 width="400.000000pt" height="444.000000pt" viewBox="0 0 400.000000 444.000000"
 preserveAspectRatio="xMidYMid meet">

<g transform="translate(0.000000,444.000000) scale(0.100000,-0.100000)"
fill="#000000" stroke="none">
<path d="M851 4026 c-10 -11 -12 -32 -8 -70 5 -47 3 -57 -14 -68 -20 -13 -20
-13 0 -54 11 -22 23 -54 26 -70 4 -16 17 -58 30 -94 12 -36 30 -103 39 -150
10 -47 21 -98 26 -115 25 -90 24 -92 -41 -153 l-60 -57 -4 -65 c-3 -62 -1 -69
33 -121 70 -105 127 -177 145 -182 10 -3 17 -9 15 -14 -1 -4 6 -23 16 -42 16
-31 16 -35 2 -43 -12 -7 -13 -14 -5 -35 11 -29 11 -28 -51 -64 -19 -11 -57
-36 -85 -55 -56 -38 -80 -42 -123 -17 -61 35 -122 -18 -102 -88 8 -28 6 -39
-13 -69 -13 -19 -34 -64 -45 -100 -12 -36 -33 -81 -46 -100 -22 -34 -41 -94
-26 -85 4 3 10 -5 13 -16 5 -17 11 -20 29 -15 13 4 52 9 88 13 53 4 68 2 79
-11 7 -9 27 -16 44 -16 31 0 50 17 68 59 7 19 12 21 24 11 7 -6 16 -24 20 -39
3 -16 17 -38 30 -51 14 -13 26 -39 29 -64 7 -42 10 -45 77 -80 39 -20 77 -36
84 -36 8 0 28 -12 45 -27 32 -26 32 -26 62 -8 17 10 45 21 62 25 31 7 31 6 33
-33 1 -46 39 -133 60 -141 8 -3 28 1 45 10 36 19 88 14 188 -16 36 -11 79 -17
95 -15 17 3 44 7 60 9 45 5 58 13 77 45 28 50 57 62 119 51 30 -5 98 -12 152
-16 96 -6 98 -6 113 -36 8 -16 22 -62 30 -100 16 -77 29 -109 50 -121 8 -4 14
-13 14 -19 0 -7 12 -24 26 -39 20 -21 24 -32 18 -51 -18 -53 -3 -70 88 -99 55
-17 84 -34 140 -83 139 -120 202 -200 213 -270 3 -22 10 -50 15 -61 5 -11 15
-40 23 -65 29 -85 149 -395 158 -406 6 -7 23 -9 48 -4 70 13 127 49 185 116
60 71 62 77 46 184 -9 63 3 85 54 98 28 8 32 13 39 63 6 43 5 61 -9 86 -14 26
-14 35 -5 47 9 11 10 24 3 48 -6 18 -13 53 -16 78 -8 65 -16 101 -25 119 -5 9
-12 37 -15 63 -8 52 -40 88 -98 107 -46 16 -112 111 -77 111 5 0 7 5 3 12 -4
7 -3 8 5 4 19 -12 50 73 40 109 -5 16 -9 60 -9 97 0 37 -5 89 -12 115 -34 142
-37 149 -78 176 -78 51 -103 44 -166 -43 l-36 -50 -39 23 c-23 13 -41 32 -44
47 -9 39 -26 56 -75 71 -37 12 -45 18 -47 41 -2 32 -17 62 -49 101 -13 16 -24
37 -24 47 0 10 -5 31 -11 47 -6 15 -11 54 -11 86 0 59 -14 87 -44 87 -19 0
-74 28 -74 38 0 4 14 23 30 42 50 58 53 62 103 134 42 60 48 75 42 103 -3 18
-1 52 5 75 12 41 11 43 -21 69 -19 15 -37 25 -41 23 -5 -3 -8 -1 -8 4 0 16
-29 22 -55 12 -16 -6 -25 -6 -25 1 0 6 -6 6 -18 0 -14 -7 -21 -5 -30 10 -15
23 -15 109 -1 164 5 22 13 66 18 98 6 50 5 57 -10 57 -9 0 -19 7 -23 15 -3 8
-10 15 -16 15 -12 0 -63 -99 -80 -157 -7 -24 -16 -43 -20 -43 -19 0 -96 32
-112 47 -10 9 -25 42 -34 74 -9 33 -21 59 -26 59 -5 0 -7 4 -4 9 7 11 -20 34
-68 56 -21 10 -56 41 -78 69 -36 45 -39 54 -35 94 2 25 1 60 -3 78 -5 19 -4
37 1 40 5 3 6 10 3 16 -4 7 -2 8 4 4 7 -4 12 -2 12 3 0 6 19 11 43 11 65 0 82
8 115 54 20 28 32 59 37 96 6 51 4 58 -24 96 -47 64 -87 68 -520 60 -218 -4
-397 -2 -461 4 -58 5 -155 13 -215 16 -96 6 -112 5 -124 -10z"/>
</g>
</svg>
