<?xml version="1.0" standalone="no"?>
<!DOCTYPE svg PUBLIC "-//W3C//DTD SVG 20010904//EN"
 "http://www.w3.org/TR/2001/REC-SVG-20010904/DTD/svg10.dtd">
<svg version="1.0" xmlns="http://www.w3.org/2000/svg"
 width="472.000000pt" height="400.000000pt" viewBox="0 0 472.000000 400.000000"
 preserveAspectRatio="xMidYMid meet">

<g transform="translate(0.000000,400.000000) scale(0.100000,-0.100000)"
fill="#000000" stroke="none">
<path d="M1500 3411 l0 -99 -43 -53 c-40 -50 -93 -117 -266 -338 -36 -45 -95
-119 -131 -163 -36 -45 -90 -114 -120 -154 -30 -40 -79 -103 -107 -140 -29
-37 -53 -73 -53 -79 0 -9 15 -12 53 -9 28 2 285 1 570 -2 l517 -7 0 -206 c0
-113 -5 -511 -11 -884 -7 -372 -9 -680 -6 -684 4 -3 188 -10 410 -14 221 -5
535 -13 697 -19 162 -6 390 -13 505 -16 116 -3 223 -10 239 -15 16 -5 32 -7
34 -4 7 6 20 87 28 166 5 43 2 64 -12 90 -10 19 -19 56 -20 83 -2 44 1 52 37
91 30 32 53 47 90 56 54 14 68 30 62 69 -2 14 -4 33 -4 43 0 9 -4 17 -10 17
-5 0 -9 7 -9 15 0 8 5 15 11 15 13 0 69 61 69 75 0 5 12 21 25 34 14 13 25 29
25 37 0 8 9 14 20 14 39 0 21 41 -57 126 -43 47 -90 93 -104 102 -15 9 -68 56
-119 105 -50 48 -98 87 -104 87 -7 0 -34 11 -59 24 -39 21 -47 23 -57 10 -15
-17 -83 -9 -118 14 -17 11 -22 21 -17 41 3 17 -2 38 -15 59 -20 33 -22 34
-130 37 -34 1 -35 2 -41 53 -6 46 -15 62 -79 137 -40 47 -75 85 -79 85 -3 0
-30 22 -59 49 -28 27 -67 55 -85 62 -42 17 -55 35 -63 85 -7 50 -18 68 -110
176 -54 63 -81 87 -109 96 -65 19 -216 124 -300 207 -55 54 -94 103 -121 153
-39 73 -39 74 -75 69 -52 -7 -96 16 -169 88 -113 112 -163 152 -201 159 -19 3
-51 18 -69 31 -19 14 -52 28 -74 32 -21 3 -53 19 -71 35 -18 15 -51 35 -74 43
l-41 14 0 -98z"/>
</g>
</svg>
