<?xml version="1.0" standalone="no"?>
<!DOCTYPE svg PUBLIC "-//W3C//DTD SVG 20010904//EN"
 "http://www.w3.org/TR/2001/REC-SVG-20010904/DTD/svg10.dtd">
<svg version="1.0" xmlns="http://www.w3.org/2000/svg"
 width="588.000000pt" height="460.000000pt" viewBox="0 0 588.000000 460.000000"
 preserveAspectRatio="xMidYMid meet">

<g transform="translate(0.000000,460.000000) scale(0.100000,-0.100000)"
fill="#000000" stroke="none">
<path d="M4670 3925 c-63 -8 -182 -14 -265 -15 -82 0 -229 -7 -325 -15 -96 -9
-296 -20 -445 -25 -148 -5 -306 -14 -350 -20 -44 -6 -201 -15 -350 -20 -148
-5 -342 -16 -430 -25 -88 -8 -209 -15 -270 -15 -60 0 -191 -7 -290 -16 -221
-18 -256 -21 -469 -29 -205 -8 -219 -12 -211 -58 8 -40 -10 -58 -75 -81 -41
-14 -46 -14 -57 0 -9 12 -21 14 -50 10 -66 -12 -70 -17 -49 -77 11 -29 19 -59
19 -66 0 -7 15 -26 33 -42 44 -41 52 -81 23 -134 -15 -29 -23 -65 -26 -116 -3
-65 0 -82 22 -128 27 -54 125 -151 188 -186 44 -23 57 -44 57 -88 0 -34 -3
-38 -38 -50 -20 -6 -40 -17 -44 -23 -13 -20 -8 -53 12 -78 10 -14 16 -29 12
-32 -4 -4 -2 -6 3 -5 6 2 33 -9 60 -25 28 -15 61 -34 75 -41 35 -19 37 -50 5
-71 -14 -9 -33 -30 -41 -46 -16 -31 -10 -50 33 -102 15 -17 20 -33 15 -40 -5
-6 -14 -30 -21 -54 -7 -24 -23 -53 -37 -64 -27 -24 -31 -53 -10 -65 9 -5 16
-32 20 -77 2 -37 7 -70 9 -72 5 -5 186 14 197 21 4 3 33 0 64 -6 72 -15 116
-54 116 -103 0 -19 -4 -37 -9 -40 -5 -3 -16 -37 -26 -75 -23 -93 -33 -106 -77
-97 -19 3 -44 15 -56 26 -21 20 -21 20 -59 -6 -26 -18 -46 -24 -64 -20 -15 3
-42 1 -60 -4 -19 -5 -51 -11 -73 -13 -52 -7 -61 -18 -42 -55 17 -33 34 -42 77
-42 21 0 29 5 29 18 1 15 2 15 13 1 15 -19 70 -39 108 -39 24 0 31 -7 44 -37
9 -21 35 -58 59 -83 24 -25 52 -59 64 -76 20 -30 20 -31 3 -60 -10 -16 -30
-40 -45 -53 -27 -25 -34 -55 -15 -66 18 -12 -22 -47 -46 -41 -35 9 -83 -28
-91 -69 -7 -40 3 -120 19 -150 12 -23 87 -116 102 -127 6 -4 19 -5 29 -2 22 7
20 7 286 28 113 9 288 23 390 32 102 8 250 19 330 24 80 4 233 15 340 24 259
21 558 45 648 52 72 6 73 6 87 41 8 20 31 58 51 85 19 27 40 62 46 76 6 15 12
22 15 15 2 -7 0 -20 -5 -30 -12 -22 -5 -43 14 -43 22 0 34 44 27 95 -7 56 -17
63 -39 30 -9 -14 -19 -23 -22 -21 -2 3 16 36 41 73 25 37 66 101 91 141 29 45
51 70 58 66 6 -4 8 -3 4 4 -10 16 54 59 99 67 64 11 89 23 112 59 14 22 42 44
80 61 32 15 78 37 102 48 51 25 116 30 132 11 15 -18 43 -18 58 0 10 12 19 11
61 -5 57 -21 80 -17 80 16 0 13 5 27 10 30 20 12 9 36 -19 41 -43 9 -65 37
-57 71 4 15 10 39 13 53 8 33 27 55 78 85 55 31 98 81 135 155 l30 59 -21 48
c-21 48 -19 95 4 90 6 -1 11 5 9 13 -7 28 9 81 21 74 7 -4 3 4 -9 17 -25 30
-50 89 -65 154 -25 109 -20 124 86 255 52 64 64 86 59 105 -11 45 141 165 256
200 14 4 51 23 83 43 71 43 74 69 9 64 -54 -4 -93 8 -217 69 -138 68 -137 67
-123 113 7 21 21 45 32 52 80 56 161 105 182 110 13 3 27 10 30 15 3 5 19 9
35 9 18 0 29 5 27 11 -2 6 -6 9 -9 7 -3 -2 -13 3 -22 10 -9 8 -21 11 -28 7
-24 -15 -26 18 -3 53 13 19 24 41 24 48 0 22 -12 44 -21 39 -4 -3 -37 -1 -73
6 -78 13 -145 53 -183 108 l-28 40 -105 -1 c-58 0 -157 -6 -220 -13z"/>
</g>
</svg>
