<?xml version="1.0" standalone="no"?>
<!DOCTYPE svg PUBLIC "-//W3C//DTD SVG 20010904//EN"
 "http://www.w3.org/TR/2001/REC-SVG-20010904/DTD/svg10.dtd">
<svg version="1.0" xmlns="http://www.w3.org/2000/svg"
 width="436.000000pt" height="540.000000pt" viewBox="0 0 436.000000 540.000000"
 preserveAspectRatio="xMidYMid meet">

<g transform="translate(0.000000,540.000000) scale(0.100000,-0.100000)"
fill="#000000" stroke="none">
<path d="M1865 4720 c-55 -11 -129 -26 -165 -33 l-65 -12 0 -90 0 -90 -79 -81
c-67 -70 -88 -85 -157 -113 -89 -37 -80 -22 -118 -201 -11 -52 -41 -153 -67
-225 -102 -281 -103 -283 -103 -385 -1 -52 2 -193 6 -313 l6 -217 41 -11 c56
-14 179 -73 243 -115 55 -36 58 -42 67 -133 3 -29 8 -56 10 -58 3 -3 45 -6 93
-7 l88 -1 7 -60 c4 -33 11 -78 17 -99 6 -26 6 -46 0 -58 -6 -11 -19 -67 -30
-126 -30 -155 -45 -208 -84 -290 l-34 -72 14 -283 c8 -155 15 -390 15 -522 0
-132 3 -303 6 -380 l7 -140 516 3 c284 2 517 4 518 6 1 1 3 100 3 220 1 120 4
224 7 232 4 11 37 14 167 14 l162 0 19 33 c10 17 63 100 116 182 54 83 137
211 185 285 251 389 246 382 310 458 88 103 94 202 18 272 -19 16 -38 30 -43
30 -6 0 -6 12 1 31 26 76 -35 246 -120 334 -55 57 -67 82 -47 101 19 19 19 62
1 111 -8 21 -17 70 -19 108 -5 65 -3 73 20 95 38 37 57 82 111 270 28 96 64
220 80 275 50 170 55 145 -47 250 -66 69 -92 103 -101 133 -6 23 -14 43 -18
46 -5 3 -51 6 -103 8 -88 2 -96 4 -122 30 -16 15 -32 28 -37 28 -12 0 -20 27
-20 71 0 21 5 39 10 39 23 0 9 51 -18 68 -67 41 -123 97 -132 133 l-10 36 -82
11 c-46 6 -130 16 -188 23 -112 13 -145 26 -160 65 -9 22 -15 24 -70 24 -41 0
-74 7 -100 20 -43 22 -70 26 -70 10 0 -20 -35 -10 -65 19 -56 54 -231 72 -390
41z"/>
</g>
</svg>
