<?xml version="1.0" standalone="no"?>
<!DOCTYPE svg PUBLIC "-//W3C//DTD SVG 20010904//EN"
 "http://www.w3.org/TR/2001/REC-SVG-20010904/DTD/svg10.dtd">
<svg version="1.0" xmlns="http://www.w3.org/2000/svg"
 width="368.000000pt" height="364.000000pt" viewBox="0 0 368.000000 364.000000"
 preserveAspectRatio="xMidYMid meet">

<g transform="translate(0.000000,364.000000) scale(0.100000,-0.100000)"
fill="#000000" stroke="none">
<path d="M1510 3131 c-14 -4 -51 -6 -82 -3 -50 4 -66 0 -130 -31 -40 -20 -88
-41 -106 -48 -41 -15 -58 -40 -66 -101 -5 -40 -2 -51 19 -76 29 -35 31 -61 10
-157 -8 -38 -17 -87 -20 -108 -8 -52 -55 -102 -109 -116 -68 -17 -71 -24 -58
-153 10 -98 10 -117 -5 -159 -17 -47 -17 -49 1 -62 17 -12 17 -15 4 -23 -27
-16 -46 -57 -78 -169 -31 -104 -59 -155 -85 -155 -18 0 -94 -77 -150 -150 -41
-53 -50 -73 -51 -110 -3 -60 -30 -229 -42 -261 -9 -21 -5 -36 17 -81 l28 -55
-23 -58 c-13 -32 -24 -70 -24 -83 0 -14 -7 -33 -16 -43 -20 -22 -25 -85 -6
-81 94 19 153 21 196 6 58 -20 81 -14 142 36 59 49 87 58 110 35 12 -11 25
-14 48 -9 49 10 119 35 139 49 16 11 30 8 95 -22 43 -19 86 -43 98 -54 27 -25
48 -25 41 1 -3 11 -2 20 2 20 12 0 76 -73 100 -113 13 -20 31 -43 42 -51 13
-9 19 -23 18 -42 -4 -54 58 -144 98 -144 16 0 17 36 2 46 -18 11 -1 67 29 91
15 13 44 32 64 43 21 11 46 30 57 41 26 28 39 108 20 120 -10 6 -5 9 17 9 36
0 72 25 148 103 34 36 56 68 57 83 3 45 15 67 42 77 11 4 21 16 24 28 4 14 8
17 13 8 18 -27 75 12 188 129 188 194 200 209 224 282 13 41 19 46 84 74 75
33 86 42 80 68 -2 10 12 31 35 53 26 23 39 45 39 61 0 29 21 54 45 54 22 0 81
44 129 97 32 36 36 45 26 58 -10 13 -10 19 5 35 10 11 29 20 42 20 16 0 27 7
30 20 3 11 10 20 15 20 5 0 6 5 3 10 -19 31 45 51 99 31 18 -7 28 -6 36 4 9
11 6 17 -14 30 -14 10 -24 21 -21 25 3 5 0 10 -7 12 -7 3 -2 13 12 26 16 14
31 20 43 16 12 -4 17 -2 13 4 -3 5 1 15 10 22 13 11 10 17 -22 43 -48 40 -93
138 -98 214 -5 65 -27 128 -88 244 -38 73 -39 79 -28 114 15 45 4 61 -37 50
-15 -5 -32 -7 -38 -6 -5 2 -7 0 -3 -4 4 -4 -6 -18 -22 -31 -15 -13 -43 -48
-61 -77 -41 -65 -69 -97 -86 -97 -7 0 -34 32 -59 70 -49 73 -64 81 -102 54
-22 -15 -31 -54 -12 -54 24 0 7 -29 -27 -44 -50 -22 -88 -10 -157 48 -43 37
-60 46 -92 46 -21 0 -64 12 -94 27 -42 19 -69 26 -114 25 -65 -1 -104 12 -170
57 -25 17 -56 31 -70 31 -14 0 -42 11 -62 25 -37 25 -50 28 -154 30 -30 1 -71
5 -90 8 -19 3 -46 2 -60 -2z"/>
</g>
</svg>
