<?xml version="1.0" standalone="no"?>
<!DOCTYPE svg PUBLIC "-//W3C//DTD SVG 20010904//EN"
 "http://www.w3.org/TR/2001/REC-SVG-20010904/DTD/svg10.dtd">
<svg version="1.0" xmlns="http://www.w3.org/2000/svg"
 width="308.000000pt" height="400.000000pt" viewBox="0 0 308.000000 400.000000"
 preserveAspectRatio="xMidYMid meet">

<g transform="translate(0.000000,400.000000) scale(0.100000,-0.100000)"
fill="#000000" stroke="none">
<path d="M2023 3563 c-46 -24 -101 -31 -185 -23 -19 2 -42 -10 -79 -39 -62
-49 -92 -59 -133 -41 -70 29 -156 21 -156 -15 0 -8 -12 -26 -26 -40 -17 -17
-27 -39 -29 -63 -1 -20 -6 -54 -10 -76 -5 -24 -4 -40 3 -45 7 -4 -1 -26 -21
-62 -43 -76 -147 -229 -155 -229 -13 0 -52 -66 -52 -88 0 -12 -11 -29 -26 -39
-15 -9 -38 -42 -51 -73 -19 -41 -50 -80 -128 -156 -89 -88 -111 -104 -154
-115 -69 -17 -96 -47 -93 -104 1 -28 -4 -50 -13 -59 -19 -19 -19 -50 0 -66 19
-16 19 -44 0 -60 -11 -9 -15 -31 -14 -79 1 -102 -11 -174 -32 -197 -15 -16
-18 -31 -15 -70 6 -80 18 -137 36 -176 10 -20 14 -42 10 -49 -15 -24 105 -215
150 -239 11 -6 32 -7 46 -4 19 5 25 4 20 -5 -4 -6 0 -14 8 -17 9 -3 16 -11 16
-16 0 -6 29 -42 65 -80 36 -39 65 -74 65 -79 0 -5 28 -22 63 -37 58 -27 82
-48 113 -98 10 -16 15 -17 32 -7 17 10 23 9 36 -12 14 -21 23 -24 63 -22 42 2
47 -1 63 -28 15 -28 21 -30 73 -31 58 0 87 -15 87 -44 0 -26 25 -42 82 -51 34
-6 65 -19 96 -44 25 -19 53 -35 62 -35 9 0 35 -18 58 -40 29 -28 49 -40 70
-40 50 0 92 12 101 29 12 23 -4 251 -18 260 -8 5 -7 16 5 39 8 18 19 58 24 90
5 31 16 77 25 101 13 35 13 46 3 59 -7 8 -12 17 -11 19 2 2 10 17 18 33 17 33
58 55 117 65 21 3 50 16 64 28 l26 23 -12 129 c-6 72 -18 163 -26 204 -20 102
-18 124 11 155 59 64 61 70 25 126 l-32 50 21 34 c26 42 26 72 1 114 -11 18
-20 38 -20 46 0 7 22 25 49 39 40 22 53 36 71 79 12 29 25 69 27 89 5 32 1 41
-27 66 l-33 29 35 45 c45 59 96 160 90 177 -5 16 27 92 39 92 5 0 4 12 -2 28
-17 42 -20 72 -9 72 5 0 10 7 10 15 0 9 9 15 25 15 19 0 25 6 27 23 3 55 -5
83 -29 102 -94 74 -133 126 -147 195 -7 33 -84 148 -107 161 -12 6 -22 5 -32
-5 -12 -13 -19 -11 -48 13 -40 33 -66 47 -119 66 -37 13 -42 12 -87 -12z"/>
</g>
</svg>
