<?xml version="1.0" standalone="no"?>
<!DOCTYPE svg PUBLIC "-//W3C//DTD SVG 20010904//EN"
 "http://www.w3.org/TR/2001/REC-SVG-20010904/DTD/svg10.dtd">
<svg version="1.0" xmlns="http://www.w3.org/2000/svg"
 width="476.000000pt" height="444.000000pt" viewBox="0 0 476.000000 444.000000"
 preserveAspectRatio="xMidYMid meet">

<g transform="translate(0.000000,444.000000) scale(0.100000,-0.100000)"
fill="#000000" stroke="none">
<path d="M967 3903 c-6 -14 -11 -295 -11 -707 -1 -330 1 -400 13 -404 7 -2 22
-13 32 -23 11 -11 19 -16 19 -12 0 4 6 0 13 -9 6 -9 32 -19 56 -22 24 -4 53
-12 65 -18 11 -7 24 -11 29 -10 4 1 7 -3 7 -10 0 -6 3 -8 7 -5 3 4 15 -1 25
-10 10 -9 28 -18 39 -20 25 -4 96 -48 134 -84 17 -15 51 -47 78 -70 26 -24 47
-47 47 -52 0 -20 47 -46 84 -47 44 0 106 -19 106 -32 0 -5 10 -19 23 -32 12
-13 23 -33 25 -45 3 -31 49 -89 84 -107 17 -9 26 -20 22 -27 -4 -7 -3 -9 1 -5
5 5 28 -12 53 -37 24 -25 50 -45 57 -45 8 0 27 -14 44 -31 17 -17 31 -27 31
-23 0 4 8 0 18 -8 9 -9 41 -28 70 -43 29 -15 61 -39 70 -52 29 -42 65 -74 96
-86 10 -4 16 -10 13 -14 -4 -3 9 -28 28 -55 19 -26 37 -65 40 -85 5 -38 42
-83 69 -83 14 0 53 -29 84 -62 9 -10 22 -18 29 -18 6 0 15 -9 18 -21 4 -11 18
-24 31 -29 13 -5 23 -14 22 -19 -2 -6 22 -34 52 -62 30 -29 48 -48 40 -44 -13
8 -13 6 -1 -8 7 -9 18 -14 23 -11 5 3 8 0 7 -7 -2 -8 1 -29 5 -46 7 -29 14
-35 61 -48 29 -9 57 -15 61 -14 21 4 34 -2 34 -15 0 -8 7 -21 15 -30 9 -8 15
-19 14 -23 -6 -35 4 -61 26 -71 14 -6 25 -8 25 -3 0 5 18 12 40 16 29 5 47 2
70 -11 16 -10 30 -23 30 -28 0 -5 3 -7 6 -3 11 11 63 -15 79 -39 9 -14 20 -22
25 -19 6 4 10 2 10 -2 0 -11 70 -91 70 -80 0 4 17 -10 37 -32 20 -22 40 -38
45 -35 5 3 7 0 6 -7 -2 -6 16 -26 38 -43 23 -17 47 -41 53 -54 6 -13 16 -20
21 -17 6 3 10 2 10 -3 0 -17 53 -62 69 -60 19 3 60 74 61 104 0 12 12 34 26
49 l27 29 -23 18 c-12 10 -17 18 -11 18 7 0 11 21 11 52 0 41 5 58 23 77 14
15 29 51 36 86 7 33 20 71 29 85 9 14 16 28 15 31 -1 3 10 4 25 1 18 -2 40 6
65 22 21 14 42 26 47 26 17 0 22 21 10 49 -10 25 -7 33 25 80 19 29 35 57 35
63 0 24 65 97 100 113 30 13 45 29 63 69 l25 51 -64 62 c-37 35 -64 70 -64 82
0 11 -6 26 -13 33 -7 7 -18 25 -24 40 -9 21 -40 41 -130 84 -69 34 -130 57
-148 57 -51 -1 -98 18 -135 57 -31 33 -112 80 -138 80 -16 0 -106 42 -125 58
-9 8 -17 11 -17 6 0 -5 -4 -4 -8 1 -11 15 -84 61 -112 70 -13 4 -46 23 -73 42
-27 19 -46 29 -42 21 4 -7 -2 -4 -12 8 -27 31 -79 64 -87 56 -4 -4 -6 -2 -4 3
7 22 -244 250 -261 236 -2 -1 -7 1 -10 6 -3 5 -42 33 -86 63 -86 58 -96 60
-222 45 -36 -5 -53 -3 -53 4 0 6 -6 11 -13 11 -7 0 -39 13 -72 30 -33 16 -73
30 -88 30 -16 0 -40 9 -54 20 -14 11 -58 29 -97 40 -125 37 -202 83 -219 133
-4 10 -12 15 -17 12 -6 -4 -9 -3 -8 2 8 30 -77 134 -96 116 -3 -3 -6 0 -6 7 0
7 -3 11 -6 7 -4 -3 -14 2 -23 13 -9 11 -41 31 -71 46 -30 15 -63 34 -72 42
-10 8 -18 11 -18 7 0 -5 -11 7 -25 26 -14 19 -36 39 -49 44 -30 13 -86 62 -86
75 0 6 -4 10 -10 10 -5 0 -32 23 -60 50 -28 28 -57 50 -65 50 -7 0 -16 8 -20
19 -3 10 -14 26 -25 36 -11 10 -20 31 -20 46 0 19 -17 47 -55 91 -33 37 -60
79 -66 103 -6 22 -16 46 -21 53 -12 13 -35 16 -41 5z"/>
</g>
</svg>
