<?xml version="1.0" standalone="no"?>
<!DOCTYPE svg PUBLIC "-//W3C//DTD SVG 20010904//EN"
 "http://www.w3.org/TR/2001/REC-SVG-20010904/DTD/svg10.dtd">
<svg version="1.0" xmlns="http://www.w3.org/2000/svg"
 width="308.000000pt" height="216.000000pt" viewBox="0 0 308.000000 216.000000"
 preserveAspectRatio="xMidYMid meet">

<g transform="translate(0.000000,216.000000) scale(0.100000,-0.100000)"
fill="#000000" stroke="none">
<path d="M970 1667 c0 -17 26 -47 41 -47 12 0 -4 32 -25 50 -13 10 -16 10 -16
-3z"/>
<path d="M1085 1588 c0 -18 -4 -44 -9 -56 -7 -22 -6 -23 12 -13 24 13 32 47
18 79 -13 31 -21 27 -21 -10z"/>
<path d="M1310 1560 c0 -5 5 -10 10 -10 6 0 10 5 10 10 0 6 -4 10 -10 10 -5 0
-10 -4 -10 -10z"/>
<path d="M1210 1491 c0 -5 7 -14 15 -21 8 -7 15 -20 15 -30 0 -14 -8 -17 -40
-14 -51 3 -59 -10 -20 -32 16 -10 30 -21 30 -24 0 -3 16 -29 35 -58 19 -29 32
-59 29 -67 -4 -8 -2 -15 2 -15 9 0 36 -53 40 -77 4 -25 -18 -25 -68 1 -27 14
-54 26 -59 26 -14 0 -11 -34 6 -56 8 -10 15 -27 15 -36 0 -9 6 -21 14 -25 8
-4 18 -21 21 -36 6 -23 4 -29 -13 -33 -11 -3 -41 -16 -68 -29 -44 -21 -48 -22
-65 -6 -27 25 -34 67 -15 96 28 42 22 46 -63 42 -72 -4 -80 -2 -90 17 -7 12
-10 32 -9 46 2 19 -2 26 -19 28 -32 5 -49 -31 -26 -58 10 -11 23 -20 30 -20 7
0 13 -7 13 -15 0 -10 -11 -15 -35 -15 -19 0 -35 -4 -35 -8 0 -4 24 -26 53 -47
28 -22 53 -43 55 -47 2 -5 10 -8 18 -8 16 0 19 -36 4 -45 -6 -3 -5 -16 3 -33
14 -34 27 -43 49 -36 11 3 19 -3 24 -18 8 -28 50 -68 69 -68 8 0 21 -10 29
-22 14 -20 19 -21 49 -10 18 7 41 12 49 12 23 0 88 60 88 81 0 10 9 21 20 24
11 3 25 15 31 26 15 28 53 41 86 28 36 -13 73 -4 73 19 0 10 14 40 30 66 31
48 31 48 80 44 52 -3 64 8 35 32 -8 7 -15 18 -15 24 1 17 44 66 71 80 13 6 25
22 27 34 2 12 7 22 12 22 5 0 25 14 43 30 45 39 72 40 75 1 2 -23 -3 -30 -23
-35 -14 -4 -23 -11 -19 -17 3 -6 13 -8 22 -4 9 3 13 3 9 -1 -4 -4 4 -22 18
-40 29 -39 31 -54 8 -55 -10 -1 -29 -2 -43 -3 -34 -3 -153 -82 -163 -108 -6
-17 -13 -20 -41 -15 -38 6 -51 -10 -60 -73 -15 -105 -22 -118 -56 -100 -30 16
-26 -11 5 -43 25 -24 25 -27 14 -74 -7 -26 -16 -53 -20 -59 -12 -15 11 -34 43
-34 l27 0 -6 65 c-4 45 -2 65 5 65 7 0 40 -27 74 -60 60 -58 88 -73 88 -47 0
7 -6 19 -12 26 -10 11 -10 14 0 18 6 3 12 16 12 29 0 16 6 24 18 24 9 0 27 3
39 6 16 4 23 0 28 -15 4 -15 15 -21 35 -21 27 0 29 2 27 41 -2 39 1 43 38 65
55 32 75 30 115 -11 41 -42 63 -32 30 13 -23 31 -20 52 6 52 17 0 18 14 2 39
-15 24 -4 51 21 51 12 0 21 -9 25 -25 4 -14 13 -25 21 -25 8 0 15 -4 15 -9 0
-5 11 -16 25 -25 30 -20 33 -4 4 23 -17 16 -19 23 -9 41 8 16 19 21 41 18 16
-1 33 3 38 10 17 28 116 82 151 82 33 0 110 41 110 58 -1 4 -7 18 -15 32 -17
29 -20 70 -5 70 15 0 12 36 -5 50 -8 7 -15 18 -15 24 -1 6 -12 24 -25 40 -23
29 -27 30 -102 29 -89 -2 -113 3 -113 22 0 17 -14 26 -47 30 -14 1 -29 9 -34
16 -7 11 -12 12 -29 2 -11 -7 -29 -13 -40 -13 -31 0 -120 42 -120 57 0 7 -7
13 -15 13 -19 0 -19 -14 0 -30 24 -20 14 -52 -25 -78 -42 -28 -96 -26 -131 7
-13 12 -26 21 -31 21 -4 0 -25 17 -47 39 -35 35 -45 39 -107 46 -38 4 -84 13
-101 20 -20 8 -35 10 -38 4 -4 -5 -3 -9 0 -9 3 0 -1 -10 -9 -22 -9 -12 -16
-32 -16 -43 0 -28 -27 -65 -48 -65 -10 0 -22 -10 -27 -22 -14 -31 -55 -39 -79
-16 -11 10 -17 20 -14 24 9 8 -12 66 -31 85 -9 10 -29 31 -44 48 -28 31 -47
39 -47 22z"/>
<path d="M1092 1259 c2 -7 14 -19 27 -27 22 -15 23 -15 19 9 -2 16 -10 25 -27
27 -15 3 -22 -1 -19 -9z"/>
<path d="M1866 564 c-4 -9 -4 -19 -2 -22 10 -9 36 8 36 23 0 20 -26 19 -34 -1z"/>
</g>
</svg>
