<?xml version="1.0" standalone="no"?>
<!DOCTYPE svg PUBLIC "-//W3C//DTD SVG 20010904//EN"
 "http://www.w3.org/TR/2001/REC-SVG-20010904/DTD/svg10.dtd">
<svg version="1.0" xmlns="http://www.w3.org/2000/svg"
 width="340.000000pt" height="312.000000pt" viewBox="0 0 340.000000 312.000000"
 preserveAspectRatio="xMidYMid meet">

<g transform="translate(0.000000,312.000000) scale(0.100000,-0.100000)"
fill="#000000" stroke="none">
<path d="M1352 2605 c-12 -95 -29 -135 -64 -152 -35 -18 -203 -73 -221 -73
-25 0 -55 -47 -63 -98 -8 -52 -32 -80 -107 -124 -37 -21 -52 -39 -71 -80 -13
-29 -40 -69 -60 -87 -20 -19 -36 -44 -36 -55 0 -11 28 -46 65 -82 36 -34 65
-68 65 -74 0 -6 -11 -46 -24 -88 -34 -111 -116 -415 -116 -430 0 -7 15 -25 33
-40 41 -34 158 -145 209 -198 44 -47 142 -111 190 -125 48 -13 70 -3 107 50
l33 49 -8 108 c-4 60 -7 118 -7 129 1 40 34 106 88 176 30 39 55 75 55 81 0
16 42 -3 98 -45 l54 -41 -5 -122 c-3 -67 -8 -128 -12 -134 -14 -23 5 -58 42
-75 125 -56 163 -86 163 -129 0 -39 47 -159 72 -187 17 -17 41 -29 69 -34 24
-4 68 -14 97 -23 42 -13 57 -14 72 -4 34 21 58 13 110 -33 28 -25 56 -45 63
-45 7 0 22 -3 35 -6 19 -6 25 1 48 50 14 31 29 56 33 56 10 0 92 -70 109 -92
19 -25 59 -23 73 4 7 12 34 46 61 74 43 46 53 52 81 48 38 -5 51 4 97 70 l35
48 -3 262 c-2 143 -6 263 -8 265 -6 6 -78 4 -101 -3 -12 -4 -25 -17 -29 -29
-7 -24 -33 -57 -44 -57 -4 0 -20 18 -34 39 -15 22 -42 47 -60 55 -18 9 -39 22
-46 31 -17 20 -39 19 -78 -5 -26 -16 -37 -18 -53 -9 -26 13 -59 68 -59 96 0
22 -35 56 -89 85 -32 17 -32 19 -30 80 l3 63 -80 78 c-46 45 -78 84 -76 94 2
8 -2 37 -8 64 -10 39 -9 53 0 64 10 12 8 20 -15 42 -33 33 -31 49 18 188 39
112 61 200 54 212 -3 5 -85 2 -182 -5 -206 -16 -215 -14 -275 58 -25 29 -56
53 -82 63 -26 10 -49 28 -59 45 -11 19 -28 31 -49 35 -66 14 -65 14 -78 -78z"/>
</g>
</svg>
