<?xml version="1.0" standalone="no"?>
<!DOCTYPE svg PUBLIC "-//W3C//DTD SVG 20010904//EN"
 "http://www.w3.org/TR/2001/REC-SVG-20010904/DTD/svg10.dtd">
<svg version="1.0" xmlns="http://www.w3.org/2000/svg"
 width="460.000000pt" height="488.000000pt" viewBox="0 0 460.000000 488.000000"
 preserveAspectRatio="xMidYMid meet">

<g transform="translate(0.000000,488.000000) scale(0.100000,-0.100000)"
fill="#000000" stroke="none">
<path d="M3286 4013 l-429 -3 6 -374 7 -374 -27 -6 c-80 -16 -409 -28 -828
-31 -259 -1 -535 -8 -615 -14 -80 -6 -219 -14 -309 -16 -91 -3 -168 -8 -172
-12 -3 -5 4 -40 17 -80 20 -64 25 -116 44 -510 27 -552 29 -568 55 -569 80 -4
183 -18 200 -26 40 -21 64 -51 86 -110 l22 -59 -58 -59 c-64 -65 -70 -96 -15
-88 16 2 27 1 25 -3 -3 -4 4 -9 14 -12 10 -2 33 -30 50 -61 18 -31 41 -61 52
-66 27 -15 148 -1 188 21 41 24 50 18 84 -54 38 -79 71 -101 179 -122 9 -2 26
-9 38 -15 11 -6 26 -8 32 -4 6 4 8 3 5 -3 -3 -5 12 -18 34 -27 43 -19 69 -61
69 -110 0 -15 7 -27 18 -30 9 -3 85 -5 167 -4 112 0 161 -4 195 -16 25 -9 52
-16 60 -16 8 0 27 -7 43 -14 15 -8 27 -11 27 -7 0 17 61 34 98 27 20 -4 43 -8
50 -8 6 -1 12 -5 12 -10 0 -5 4 -7 9 -4 5 3 11 -1 15 -9 7 -20 36 -19 36 0 0
18 81 19 285 5 214 -15 285 -31 405 -93 115 -60 191 -107 260 -162 78 -63 134
-102 158 -109 l22 -7 -2 1623 -3 1623 -90 0 c-49 0 -283 -1 -519 -2z"/>
</g>
</svg>
