<?xml version="1.0" standalone="no"?>
<!DOCTYPE svg PUBLIC "-//W3C//DTD SVG 20010904//EN"
 "http://www.w3.org/TR/2001/REC-SVG-20010904/DTD/svg10.dtd">
<svg version="1.0" xmlns="http://www.w3.org/2000/svg"
 width="408.000000pt" height="440.000000pt" viewBox="0 0 408.000000 440.000000"
 preserveAspectRatio="xMidYMid meet">

<g transform="translate(0.000000,440.000000) scale(0.100000,-0.100000)"
fill="#000000" stroke="none">
<path d="M1079 3796 c-3 -3 -36 -10 -74 -16 -100 -15 -99 -15 -124 -69 -12
-27 -35 -62 -51 -78 -15 -15 -42 -57 -60 -93 -38 -81 -48 -93 -84 -111 -25
-12 -59 -56 -83 -108 -8 -18 17 -32 38 -20 13 7 20 5 27 -7 7 -13 17 -15 38
-10 63 16 76 13 96 -24 11 -19 28 -44 38 -55 12 -13 18 -37 19 -69 0 -52 24
-90 65 -102 12 -3 35 -12 51 -19 17 -7 42 -17 58 -23 29 -13 33 -28 16 -65 -9
-19 -8 -32 6 -60 20 -43 13 -132 -12 -146 -12 -6 -14 -17 -8 -42 13 -65 7
-159 -13 -196 -7 -12 -12 -38 -12 -58 0 -36 0 -36 32 -29 18 3 38 13 43 21 10
13 13 13 24 -1 11 -13 37 -16 150 -16 l136 0 78 -51 c43 -28 88 -64 100 -80
12 -16 42 -43 67 -59 25 -16 58 -45 73 -65 15 -19 57 -57 92 -83 127 -97 175
-147 189 -200 19 -76 62 -138 131 -193 35 -27 86 -80 114 -117 27 -37 58 -75
68 -84 16 -15 18 -31 17 -115 -2 -64 2 -105 10 -118 14 -22 10 -95 -5 -95 -21
0 -9 -32 60 -156 14 -24 36 -47 54 -55 18 -8 37 -25 43 -39 34 -74 48 -98 78
-133 28 -34 44 -42 121 -62 85 -22 90 -22 127 -5 26 12 62 17 113 16 41 -1 75
2 75 6 0 4 14 15 31 23 22 12 34 13 43 5 10 -7 24 -7 52 2 l39 13 -4 310 -3
310 40 115 c22 63 60 174 85 245 43 124 77 273 77 342 0 17 -29 110 -65 205
-90 238 -111 294 -129 360 -10 35 -26 64 -41 76 -14 11 -25 28 -25 38 0 24
-36 84 -50 84 -6 0 -37 25 -70 55 -33 30 -61 55 -63 55 -1 0 -27 9 -57 20 -30
11 -62 20 -71 20 -24 0 -80 30 -86 47 -4 9 -1 24 5 34 22 35 14 72 -21 101
-42 33 -67 84 -67 135 0 41 -20 107 -38 125 -11 11 -276 29 -300 20 -7 -2 -26
-24 -43 -48 -22 -32 -38 -45 -63 -50 -48 -8 -125 0 -230 25 l-90 21 -38 -20
c-60 -31 -84 -27 -92 16 -4 19 -16 50 -27 67 -10 18 -19 39 -19 47 0 35 -21
39 -61 14 -21 -13 -40 -24 -42 -24 -2 0 -18 13 -35 30 -17 16 -44 32 -59 35
-15 3 -46 15 -69 27 -27 14 -50 19 -67 14 -30 -7 -42 15 -31 58 4 17 -1 38
-17 65 -25 45 -47 51 -107 30 -27 -9 -35 -8 -65 15 -35 27 -40 29 -48 22z"/>
</g>
</svg>
