<?xml version="1.0" standalone="no"?>
<!DOCTYPE svg PUBLIC "-//W3C//DTD SVG 20010904//EN"
 "http://www.w3.org/TR/2001/REC-SVG-20010904/DTD/svg10.dtd">
<svg version="1.0" xmlns="http://www.w3.org/2000/svg"
 width="404.000000pt" height="564.000000pt" viewBox="0 0 404.000000 564.000000"
 preserveAspectRatio="xMidYMid meet">

<g transform="translate(0.000000,564.000000) scale(0.100000,-0.100000)"
fill="#000000" stroke="none">
<path d="M1625 4725 c-28 -27 -42 -34 -70 -33 -47 2 -114 -45 -139 -97 -10
-22 -29 -53 -42 -68 -28 -33 -31 -59 -9 -77 26 -22 16 -50 -32 -96 -42 -39
-53 -44 -88 -43 -86 5 -95 2 -95 -31 0 -33 -19 -40 -40 -15 -7 8 -16 15 -21
15 -31 0 23 -132 75 -183 39 -39 41 -44 31 -72 -6 -16 -16 -41 -24 -54 -18
-32 -6 -137 19 -179 23 -38 30 -39 53 -11 20 23 52 20 95 -7 27 -18 28 -35 1
-116 -25 -77 -36 -254 -21 -324 6 -27 16 -80 22 -119 6 -38 16 -83 22 -100 22
-66 22 -73 -10 -89 -17 -9 -40 -16 -52 -16 -34 0 -60 -34 -54 -72 5 -27 0 -39
-25 -65 -16 -17 -39 -49 -49 -70 -29 -57 -64 -182 -57 -203 3 -10 -4 -47 -16
-82 -12 -34 -22 -91 -23 -125 -2 -71 -23 -103 -66 -103 -35 0 -61 -29 -53 -58
4 -18 12 -22 39 -20 36 2 82 -30 57 -39 -21 -8 -15 -62 10 -86 19 -20 22 -34
22 -93 0 -55 5 -79 27 -121 27 -53 27 -53 6 -64 -19 -10 -20 -16 -13 -72 5
-34 8 -78 6 -97 -5 -97 44 -199 88 -185 23 7 51 -28 51 -63 0 -40 38 -98 125
-192 47 -50 85 -95 85 -99 0 -4 18 -15 39 -23 37 -15 40 -19 40 -54 1 -93 15
-124 68 -150 28 -14 56 -18 103 -16 36 1 92 3 125 4 50 2 67 -2 102 -25 35
-22 45 -36 54 -72 12 -47 12 -47 90 -60 25 -4 40 -1 48 9 12 15 15 14 94 -31
12 -7 34 -13 49 -13 16 0 42 -13 62 -31 44 -38 90 -53 107 -33 14 17 14 21 1
249 -7 105 -17 287 -23 405 -14 287 -15 302 -32 362 -8 29 -18 74 -22 100 -6
44 -4 48 17 52 42 9 798 45 946 46 58 0 62 1 62 24 0 12 4 36 10 52 5 16 14
74 19 129 6 55 15 134 20 175 19 150 20 259 5 303 -8 23 -22 76 -30 117 -7 41
-23 87 -34 102 -30 41 -98 181 -104 214 -3 17 -12 50 -21 73 -16 45 -12 108 9
146 13 25 35 103 36 129 0 11 7 27 15 36 14 15 10 21 -44 63 -57 44 -169 183
-224 277 -29 52 -63 191 -72 300 -3 41 -15 106 -26 143 l-21 69 21 14 c27 20
27 51 -3 116 -47 105 -55 128 -62 178 -6 45 -10 52 -38 64 -17 7 -46 27 -65
45 -28 26 -41 31 -85 31 -122 0 -154 10 -211 61 -57 53 -71 57 -114 34 -16 -8
-48 -14 -72 -14 -73 0 -121 -23 -149 -72 -18 -30 -44 -54 -85 -78 -50 -29 -71
-35 -136 -39 -45 -3 -79 0 -82 6 -4 5 -10 42 -13 81 -7 68 -8 73 -38 85 -17 8
-44 28 -60 45 -39 40 -68 40 -111 -4z"/>
</g>
</svg>
