<?xml version="1.0" standalone="no"?>
<!DOCTYPE svg PUBLIC "-//W3C//DTD SVG 20010904//EN"
 "http://www.w3.org/TR/2001/REC-SVG-20010904/DTD/svg10.dtd">
<svg version="1.0" xmlns="http://www.w3.org/2000/svg"
 width="312.000000pt" height="312.000000pt" viewBox="0 0 312.000000 312.000000"
 preserveAspectRatio="xMidYMid meet">

<g transform="translate(0.000000,312.000000) scale(0.100000,-0.100000)"
fill="#000000" stroke="none">
<path d="M2116 2499 c-14 -11 -33 -34 -41 -50 -17 -32 -40 -40 -30 -10 6 21
-26 51 -56 51 -43 0 -71 -79 -46 -129 9 -17 12 -31 8 -31 -5 0 -16 -28 -26
-62 -9 -35 -21 -68 -26 -75 -6 -7 -6 -12 0 -15 16 -6 -13 -72 -34 -77 -17 -3
-18 -1 -6 13 12 14 10 16 -13 16 -20 0 -26 -5 -26 -21 0 -12 8 -23 20 -26 12
-3 20 -14 20 -27 0 -20 1 -20 20 4 10 14 22 22 26 18 4 -4 1 -15 -7 -24 -8 -9
-15 -29 -15 -43 -3 -41 -43 -122 -85 -169 -32 -37 -37 -47 -28 -68 9 -27 1
-51 -24 -72 -11 -10 -14 -4 -13 31 1 36 -2 42 -19 42 -16 0 -20 -7 -20 -34 0
-19 -6 -36 -12 -38 -7 -3 -17 -19 -23 -37 -6 -18 -21 -37 -33 -43 -12 -6 -39
-18 -60 -27 -28 -12 -39 -23 -44 -47 -7 -34 -43 -63 -70 -56 -16 4 -15 6 5 12
30 10 28 31 -4 39 -15 4 -27 6 -28 4 -13 -30 -29 -43 -62 -52 -33 -9 -43 -19
-62 -60 -20 -42 -27 -47 -49 -43 -20 4 -29 -2 -43 -26 -14 -22 -16 -35 -9 -49
7 -12 5 -26 -5 -46 -20 -38 -111 -122 -133 -122 -10 0 -36 18 -57 40 -39 39
-71 49 -110 34 -25 -10 -19 -54 17 -114 67 -111 100 -192 102 -250 4 -98 88
-240 135 -225 64 20 130 58 136 78 10 33 31 53 90 87 60 33 76 37 68 15 -4
-10 0 -15 14 -15 21 0 49 26 39 37 -4 3 -2 14 4 25 10 19 11 19 30 2 19 -17
21 -16 54 16 21 20 35 44 35 58 0 14 14 38 34 58 19 19 37 42 41 51 7 16 8 15
14 -5 l6 -23 48 25 c26 15 53 26 60 26 7 0 18 10 26 22 l13 22 12 -23 12 -22
42 34 c41 35 68 39 99 15 23 -18 58 3 82 47 13 24 20 48 17 54 -13 20 16 22
37 3 29 -26 53 -17 100 41 29 33 43 43 60 40 27 -5 77 31 77 56 0 20 30 51 48
51 6 0 15 12 18 28 4 15 14 32 22 38 12 9 13 17 2 50 -7 21 -16 43 -21 49 -13
13 -10 61 7 135 8 36 21 93 28 126 7 34 20 69 29 78 35 35 31 77 -12 152 -23
39 -41 75 -41 79 0 5 -8 17 -17 28 -14 15 -18 39 -19 115 0 54 -4 107 -8 119
-7 23 -111 87 -125 78 -5 -3 -22 2 -37 10 -18 9 -41 13 -60 9 -18 -3 -35 -1
-38 5 -11 17 -30 13 -60 -10z"/>
</g>
</svg>
