<?xml version="1.0" standalone="no"?>
<!DOCTYPE svg PUBLIC "-//W3C//DTD SVG 20010904//EN"
 "http://www.w3.org/TR/2001/REC-SVG-20010904/DTD/svg10.dtd">
<svg version="1.0" xmlns="http://www.w3.org/2000/svg"
 width="368.000000pt" height="496.000000pt" viewBox="0 0 368.000000 496.000000"
 preserveAspectRatio="xMidYMid meet">

<g transform="translate(0.000000,496.000000) scale(0.100000,-0.100000)"
fill="#000000" stroke="none">
<path d="M1570 4268 c-36 -56 -40 -68 -35 -105 5 -37 3 -44 -20 -59 -24 -16
-26 -16 -39 1 -16 22 -46 13 -46 -13 0 -26 -17 -39 -62 -47 l-36 -7 0 -69 c0
-38 4 -71 8 -74 5 -3 -2 -17 -15 -31 -13 -13 -26 -36 -29 -50 -8 -29 10 -94
25 -94 5 0 9 -4 9 -10 0 -5 -9 -10 -19 -10 -23 0 -22 -29 1 -75 28 -54 18
-137 -24 -196 -9 -14 -6 -26 20 -65 44 -69 50 -121 22 -181 l-22 -47 32 -81
c18 -44 50 -110 72 -147 34 -57 41 -78 44 -135 6 -110 32 -190 75 -232 53 -52
63 -75 46 -108 -8 -16 -18 -43 -22 -60 -7 -37 -38 -63 -73 -63 -44 0 -199 -97
-221 -139 -6 -10 -1 -49 11 -101 30 -133 32 -171 13 -230 -10 -29 -20 -87 -24
-128 -6 -79 -11 -86 -63 -97 -40 -8 -51 -35 -37 -91 7 -25 18 -48 25 -51 7 -3
18 -19 24 -37 8 -26 7 -39 -6 -65 -9 -19 -19 -53 -22 -77 -4 -41 -16 -57 -24
-34 -5 15 -46 0 -51 -20 -6 -22 18 -90 35 -101 7 -5 23 -9 36 -9 14 0 27 -9
34 -25 16 -35 -7 -74 -55 -93 -41 -17 -56 -47 -38 -80 21 -40 4 -122 -25 -122
-28 0 -25 -25 10 -94 20 -40 38 -83 39 -97 2 -38 21 -45 105 -38 89 8 122 3
174 -22 21 -11 44 -19 53 -19 21 0 87 62 109 104 l19 35 -32 42 c-17 24 -31
52 -31 64 0 27 115 150 153 164 16 6 39 11 53 11 27 0 65 21 106 58 25 23 30
24 58 12 26 -11 37 -10 73 5 75 31 85 37 91 54 3 9 17 31 31 50 17 24 24 45
23 73 -1 26 6 48 21 68 20 28 21 32 6 59 -34 67 -9 120 87 182 32 20 90 50
128 65 77 30 93 44 153 135 46 70 90 104 153 120 32 8 45 18 54 40 7 15 19 34
27 40 8 7 24 31 35 53 11 23 35 57 52 77 17 20 44 55 59 78 36 52 152 130 220
148 28 7 68 10 89 7 35 -6 38 -5 32 12 -4 11 -12 26 -19 34 -6 8 -19 31 -28
50 -9 19 -34 52 -56 73 -37 35 -41 43 -41 87 0 27 -4 82 -9 122 -6 40 -12 132
-15 203 -18 440 -18 445 -37 455 -10 6 -29 10 -43 10 -14 0 -32 10 -43 23 -29
37 -68 58 -104 56 -20 -2 -46 5 -63 16 -21 14 -49 19 -103 20 -85 2 -103 13
-112 72 -9 55 -59 78 -161 74 -166 -7 -167 -7 -227 35 -65 45 -94 102 -72 139
10 17 7 22 -22 45 -18 14 -45 38 -59 54 -14 15 -49 53 -78 84 -72 75 -115 138
-127 187 -9 35 -14 40 -42 43 -37 4 -66 37 -80 92 -8 30 -13 35 -35 32 -16 -2
-28 3 -31 12 -11 28 -26 17 -67 -46z"/>
</g>
</svg>
