<?xml version="1.0" standalone="no"?>
<!DOCTYPE svg PUBLIC "-//W3C//DTD SVG 20010904//EN"
 "http://www.w3.org/TR/2001/REC-SVG-20010904/DTD/svg10.dtd">
<svg version="1.0" xmlns="http://www.w3.org/2000/svg"
 width="652.000000pt" height="436.000000pt" viewBox="0 0 652.000000 436.000000"
 preserveAspectRatio="xMidYMid meet">

<g transform="translate(0.000000,436.000000) scale(0.100000,-0.100000)"
fill="#000000" stroke="none">
<path d="M2893 3944 c3 -49 14 -230 24 -403 l17 -313 29 -27 c16 -14 40 -48
53 -76 13 -27 35 -70 48 -94 14 -24 23 -48 20 -53 -3 -5 -34 -8 -68 -7 -34 1
-71 -3 -82 -8 -10 -6 -34 -13 -53 -17 -41 -8 -157 -89 -166 -116 -4 -11 -24
-41 -46 -66 -22 -25 -46 -61 -54 -80 -20 -47 -114 -154 -130 -148 -16 7 -84
-27 -106 -52 -9 -11 -26 -37 -37 -59 -21 -42 -112 -135 -133 -135 -19 0 -172
-77 -202 -102 -34 -28 -45 -83 -26 -127 8 -17 18 -31 24 -31 5 0 2 -7 -7 -14
-22 -16 -48 -77 -48 -110 0 -33 -48 -123 -78 -147 -14 -10 -36 -19 -49 -19
-13 0 -37 -7 -53 -15 -20 -10 -43 -13 -67 -9 -33 5 -42 2 -70 -25 -33 -31 -42
-35 -75 -32 -26 3 -111 -46 -134 -77 -10 -15 -29 -37 -41 -50 -28 -28 -28 -34
-2 -58 12 -10 27 -31 35 -46 13 -25 12 -32 -5 -66 -18 -35 -115 -132 -132
-132 -4 0 -29 10 -56 22 -40 18 -64 21 -143 19 -52 -1 -98 -6 -102 -9 -12 -13
-17 -124 -6 -148 9 -19 8 -28 -6 -43 -19 -20 -15 -51 8 -81 7 -8 13 -30 15
-49 2 -19 7 -45 11 -57 5 -12 6 -31 3 -43 -3 -13 1 -29 10 -39 26 -29 39 -74
43 -151 2 -40 7 -77 10 -83 3 -5 23 -7 43 -4 48 6 153 13 481 31 151 8 397 22
545 30 149 9 351 20 450 25 99 5 261 14 360 19 99 6 270 15 380 21 110 6 297
17 415 25 118 8 283 17 365 20 234 10 715 42 721 48 5 5 35 129 36 152 1 6 -2
42 -6 81 -6 60 -4 72 9 77 20 8 19 33 -1 41 -9 4 -14 9 -11 12 3 3 -7 33 -22
67 -15 34 -33 96 -40 137 -7 41 -17 98 -22 127 -15 78 10 156 67 210 24 23 44
47 44 53 0 14 59 12 92 -3 15 -7 37 -27 50 -46 17 -25 35 -37 68 -46 25 -6 92
-36 150 -66 58 -31 111 -54 118 -51 7 2 43 -16 80 -41 122 -82 113 -80 321
-75 l186 3 93 44 c50 24 92 49 92 54 0 14 -64 98 -102 133 -58 54 -101 74
-157 74 -100 0 -91 -50 -91 529 0 563 5 517 -65 555 -16 9 -50 32 -75 51 -95
72 -300 206 -352 230 -54 25 -259 65 -333 65 -22 0 -77 5 -123 12 -81 11 -83
11 -98 -11 -11 -16 -19 -19 -28 -12 -8 7 -24 7 -50 0 -34 -9 -42 -8 -75 15
-44 31 -81 33 -105 7 -17 -19 -15 -19 -141 9 -97 22 -154 30 -210 29 -210 -4
-227 3 -237 91 -4 31 -48 61 -141 95 -147 54 -168 67 -204 122 -18 29 -33 57
-33 63 0 15 -11 12 -45 -10 -22 -15 -47 -20 -97 -20 -74 0 -102 16 -149 84
-13 20 -44 44 -70 57 -85 39 -87 93 -5 148 35 23 38 28 33 62 -8 58 -35 106
-68 118 -15 5 -72 13 -125 17 l-97 7 6 -89z"/>
</g>
</svg>
