<?xml version="1.0" standalone="no"?>
<!DOCTYPE svg PUBLIC "-//W3C//DTD SVG 20010904//EN"
 "http://www.w3.org/TR/2001/REC-SVG-20010904/DTD/svg10.dtd">
<svg version="1.0" xmlns="http://www.w3.org/2000/svg"
 width="540.000000pt" height="468.000000pt" viewBox="0 0 540.000000 468.000000"
 preserveAspectRatio="xMidYMid meet">

<g transform="translate(0.000000,468.000000) scale(0.100000,-0.100000)"
fill="#000000" stroke="none">
<path d="M3687 4123 c-11 -3 -38 -47 -72 -116 -105 -221 -116 -243 -140 -283
-14 -23 -27 -63 -31 -90 -5 -47 -10 -72 -34 -161 -16 -61 -32 -54 -29 12 2 48
0 57 -23 74 -36 29 -62 95 -46 120 9 15 6 25 -20 57 -58 74 -99 172 -61 149
17 -11 9 10 -15 36 -29 33 -50 44 -99 53 -21 4 -53 15 -70 25 -41 23 -140 49
-197 53 -52 3 -62 -9 -81 -102 -6 -30 -20 -77 -30 -103 -11 -26 -17 -52 -14
-57 3 -5 0 -12 -6 -16 -6 -3 -17 -20 -24 -38 -11 -26 -11 -35 1 -58 8 -15 23
-32 34 -38 24 -13 26 -30 5 -30 -18 0 -19 -32 -3 -97 15 -62 44 -101 107 -144
48 -32 50 -36 51 -80 0 -82 19 -113 81 -132 18 -6 53 -67 38 -67 -17 0 -9 -28
17 -59 30 -36 44 -38 69 -11 23 26 57 26 80 0 10 -11 35 -25 56 -30 28 -8 40
-18 48 -40 5 -17 15 -30 20 -30 12 0 44 30 58 54 11 21 121 33 151 17 20 -11
20 -16 17 -263 -1 -139 -6 -266 -10 -283 -9 -33 -61 -120 -89 -148 -10 -10
-33 -17 -54 -17 -44 -1 -51 -6 -121 -87 -30 -35 -57 -63 -61 -63 -4 0 -33 25
-64 55 -30 30 -60 55 -66 55 -5 0 -17 -15 -26 -32 -28 -56 -43 -68 -78 -61
-43 8 -88 32 -105 55 -20 29 -51 37 -91 23 -36 -12 -93 -4 -105 15 -3 6 -23
10 -44 10 -52 0 -117 34 -137 72 -18 35 -53 137 -54 156 0 7 -11 30 -25 52
-20 32 -33 41 -64 46 -53 8 -99 38 -112 72 -7 17 -9 76 -6 157 5 139 0 162
-44 199 -29 24 -66 12 -89 -29 -9 -16 -29 -52 -45 -80 -35 -63 -56 -123 -46
-129 7 -5 14 -81 15 -181 0 -53 -27 -106 -74 -144 -38 -30 -40 -31 -79 -17
-86 29 -181 99 -299 217 -64 65 -128 120 -142 124 -25 6 -26 3 -53 -99 -16
-57 -36 -111 -45 -119 -18 -15 -131 -71 -277 -135 -205 -91 -322 -151 -355
-183 -19 -19 -49 -44 -65 -56 -32 -22 -125 -186 -125 -219 0 -23 27 -58 57
-73 32 -16 77 -117 76 -168 l-1 -42 41 -5 c43 -5 275 -19 337 -20 19 -1 177 3
350 7 320 8 334 8 488 -28 16 -4 31 -22 49 -61 24 -53 25 -59 13 -117 -6 -35
-25 -82 -41 -106 -16 -25 -29 -48 -29 -52 0 -5 -33 -9 -72 -11 -67 -3 -73 -5
-69 -23 2 -11 6 -51 8 -90 4 -61 8 -74 35 -101 16 -18 43 -34 59 -38 35 -7 84
-59 100 -106 6 -19 15 -39 19 -45 4 -5 13 -27 19 -47 10 -32 17 -38 39 -38 38
0 47 8 73 70 24 57 76 140 87 140 3 0 24 -18 47 -41 39 -39 157 -95 241 -113
30 -7 31 -5 38 31 3 21 6 54 6 74 0 20 6 41 13 46 14 12 133 37 161 35 10 0
32 6 48 14 34 18 47 11 83 -46 18 -29 33 -38 76 -49 30 -8 66 -24 81 -37 47
-39 65 -39 115 -3 39 27 49 30 65 20 15 -9 36 -9 96 0 89 15 115 35 133 102
40 152 100 307 118 307 5 0 22 -7 37 -15 16 -8 47 -15 70 -15 33 0 43 4 51 22
9 21 15 22 94 20 46 -2 122 -7 169 -12 47 -6 90 -10 96 -10 6 0 51 50 100 112
178 225 335 424 354 448 89 116 306 386 314 392 13 8 23 395 25 958 3 587 7
525 -32 549 -18 11 -42 28 -54 38 -11 10 -35 29 -54 43 -18 14 -40 34 -48 44
-18 21 -28 31 -87 81 -36 30 -42 41 -42 75 0 22 -3 43 -6 48 -7 12 -556 4
-571 -8 -8 -7 -25 -5 -55 5 -41 15 -86 18 -123 8z"/>
</g>
</svg>
