<?xml version="1.0" standalone="no"?>
<!DOCTYPE svg PUBLIC "-//W3C//DTD SVG 20010904//EN"
 "http://www.w3.org/TR/2001/REC-SVG-20010904/DTD/svg10.dtd">
<svg version="1.0" xmlns="http://www.w3.org/2000/svg"
 width="308.000000pt" height="444.000000pt" viewBox="0 0 308.000000 444.000000"
 preserveAspectRatio="xMidYMid meet">

<g transform="translate(0.000000,444.000000) scale(0.100000,-0.100000)"
fill="#000000" stroke="none">
<path d="M994 3766 c-12 -8 -50 -16 -85 -18 l-64 -3 -1 -50 c0 -27 -3 -68 -8
-90 -6 -35 -3 -45 21 -77 15 -21 35 -40 43 -43 8 -3 28 -17 44 -31 28 -25 28
-26 13 -64 -10 -27 -13 -49 -7 -72 12 -48 45 -136 73 -192 l25 -49 -23 -45
-23 -45 20 -44 c12 -28 21 -76 24 -126 12 -207 50 -306 183 -470 30 -38 79
-87 108 -110 55 -43 61 -55 42 -74 -7 -7 -13 -43 -15 -82 -2 -47 -10 -83 -24
-112 -15 -29 -20 -51 -16 -73 4 -17 10 -56 15 -86 9 -57 37 -121 101 -227 41
-67 65 -127 56 -142 -3 -5 4 -35 15 -67 17 -50 20 -75 15 -164 -6 -124 -29
-316 -51 -418 -8 -40 -15 -87 -15 -103 l0 -29 118 1 c64 1 266 6 447 12 l330
12 0 170 c0 352 -17 1327 -26 1505 -5 102 -12 237 -15 300 l-6 115 40 68 c38
64 47 98 75 267 3 14 14 59 25 101 20 70 20 78 6 119 -9 25 -13 57 -10 72 8
41 -13 51 -101 47 l-78 -4 -13 80 c-7 44 -21 91 -31 105 -19 27 -128 89 -201
114 -63 22 -109 25 -150 11 -19 -6 -52 -10 -72 -7 -31 3 -42 -1 -67 -26 -17
-16 -34 -25 -38 -21 -5 5 -38 10 -73 11 -56 3 -65 0 -74 -17 -9 -16 -16 -19
-36 -13 -58 18 -210 48 -241 48 -19 0 -77 12 -128 25 -111 29 -120 30 -147 11z"/>
</g>
</svg>
