<?xml version="1.0" standalone="no"?>
<!DOCTYPE svg PUBLIC "-//W3C//DTD SVG 20010904//EN"
 "http://www.w3.org/TR/2001/REC-SVG-20010904/DTD/svg10.dtd">
<svg version="1.0" xmlns="http://www.w3.org/2000/svg"
 width="368.000000pt" height="424.000000pt" viewBox="0 0 368.000000 424.000000"
 preserveAspectRatio="xMidYMid meet">

<g transform="translate(0.000000,424.000000) scale(0.100000,-0.100000)"
fill="#000000" stroke="none">
<path d="M1276 3633 c-4 -4 -24 -7 -44 -8 l-37 0 -9 -65 c-4 -36 -9 -75 -10
-87 0 -11 -4 -19 -8 -16 -5 2 -8 -9 -8 -26 0 -16 -3 -37 -6 -45 -5 -12 -2 -15
10 -10 14 5 15 2 6 -21 -6 -15 -8 -30 -5 -35 3 -5 0 -10 -5 -12 -12 -4 -32
-126 -24 -140 3 -4 0 -8 -5 -8 -6 0 -11 -13 -11 -28 0 -20 -8 -32 -30 -46 -17
-9 -27 -22 -24 -28 4 -7 2 -8 -4 -4 -6 4 -18 -6 -27 -24 -8 -16 -13 -30 -10
-30 4 0 -1 -7 -9 -16 -9 -8 -14 -19 -11 -24 3 -5 0 -10 -6 -12 -8 -3 -3 -28
14 -79 14 -41 29 -95 33 -119 3 -25 15 -60 25 -78 21 -36 25 -57 9 -47 -5 3
-10 -3 -10 -15 0 -12 3 -19 8 -17 4 3 7 -5 8 -16 1 -12 3 -50 6 -85 2 -34 1
-57 -4 -50 -6 10 -8 9 -8 -3 0 -9 -3 -30 -6 -46 -6 -29 -4 -31 31 -37 20 -4
38 -13 41 -20 5 -12 -38 -151 -57 -188 -11 -21 -87 -46 -97 -32 -17 23 -40 14
-45 -18 -2 -18 -15 -58 -27 -88 -13 -30 -24 -73 -26 -95 -4 -69 -22 -172 -33
-194 -7 -12 -8 -21 -4 -21 5 0 13 -17 20 -37 10 -32 9 -41 -4 -55 -9 -10 -20
-15 -25 -12 -4 3 -8 2 -7 -3 3 -16 -2 -38 -10 -52 -8 -12 -13 -12 -36 3 -17
11 -31 14 -36 9 -16 -16 -30 -125 -23 -182 4 -32 3 -56 -4 -60 -15 -9 7 -120
30 -154 11 -15 26 -51 33 -78 16 -61 41 -85 99 -93 28 -4 51 -16 65 -31 26
-31 26 -30 0 -66 -15 -21 -26 -28 -40 -24 -24 8 -25 -17 -3 -86 9 -27 14 -53
10 -56 -3 -3 5 -21 19 -39 14 -18 25 -37 25 -43 0 -6 5 -11 12 -11 6 0 9 -3 5
-6 -9 -9 21 -66 44 -84 10 -8 20 -26 22 -39 5 -33 21 -37 53 -12 29 23 64 27
81 10 15 -15 74 12 101 46 26 32 27 39 9 57 -29 29 -26 47 13 100 22 29 40 60
40 69 0 20 37 69 52 69 6 0 19 7 29 16 9 8 26 16 37 17 11 0 19 4 16 8 -2 4 0
10 5 14 5 3 14 -1 18 -10 9 -16 9 -16 101 48 47 33 63 29 106 -28 22 -28 34
-35 61 -35 44 0 55 -20 55 -99 0 -33 5 -63 10 -66 6 -4 40 -3 76 0 92 10 154
52 169 115 l11 45 58 10 c32 5 55 12 52 16 -3 3 18 5 46 4 31 -1 66 6 88 16
20 10 45 17 55 16 22 -2 61 -40 70 -67 9 -28 52 -40 157 -43 l97 -3 28 -36
c35 -46 52 -53 72 -33 15 15 12 20 -25 53 -53 47 -76 91 -62 116 10 19 6 119
-8 163 -6 23 -5 23 89 23 74 0 99 4 111 16 15 14 25 13 120 -10 57 -15 111
-24 120 -20 20 8 21 30 1 38 -8 3 -26 30 -39 60 -14 32 -36 62 -53 73 -37 23
-45 34 -93 120 -42 75 -49 117 -31 180 6 21 6 35 0 39 -20 12 -28 53 -17 86 8
22 8 33 1 35 -7 3 -9 22 -6 48 4 42 1 49 -56 123 -33 43 -81 93 -105 110 -76
55 -166 175 -166 221 0 39 -35 81 -127 151 -47 36 -106 88 -132 116 -26 29
-65 61 -87 72 -21 11 -48 33 -60 49 -12 15 -50 48 -85 73 l-64 45 -160 -1
c-88 0 -174 -4 -191 -8 -28 -7 -34 -4 -54 24 -23 33 -23 41 0 164 7 40 8 75 0
113 -10 58 -7 71 33 125 19 26 19 27 -1 70 -27 60 -34 80 -22 73 15 -9 12 31
-2 43 -7 5 -24 13 -38 16 -41 12 -73 30 -101 56 -34 33 -45 57 -48 102 -1 21
-11 54 -22 73 -21 35 -35 40 -90 36 -14 -1 -32 5 -39 14 -14 17 -23 19 -34 8z"/>
</g>
</svg>
