<?xml version="1.0" standalone="no"?>
<!DOCTYPE svg PUBLIC "-//W3C//DTD SVG 20010904//EN"
 "http://www.w3.org/TR/2001/REC-SVG-20010904/DTD/svg10.dtd">
<svg version="1.0" xmlns="http://www.w3.org/2000/svg"
 width="372.000000pt" height="548.000000pt" viewBox="0 0 372.000000 548.000000"
 preserveAspectRatio="xMidYMid meet">

<g transform="translate(0.000000,548.000000) scale(0.100000,-0.100000)"
fill="#000000" stroke="none">
<path d="M1456 5103 c-7 -33 -67 -395 -95 -573 -11 -69 -32 -197 -46 -285 -14
-88 -32 -205 -40 -260 -9 -55 -22 -131 -30 -170 -8 -38 -17 -92 -21 -120 -9
-72 -10 -84 -23 -150 -6 -33 -13 -76 -15 -95 -3 -19 -7 -50 -10 -67 -17 -94
-17 -93 14 -123 17 -16 30 -33 30 -37 0 -4 9 -16 20 -28 55 -56 99 -112 100
-125 0 -14 -38 -147 -128 -450 -51 -172 -54 -177 -91 -224 -29 -36 -31 -45
-31 -115 0 -46 6 -92 16 -119 14 -36 15 -48 4 -81 -14 -43 -3 -75 28 -85 10
-3 23 -18 30 -33 7 -16 31 -64 53 -108 50 -96 62 -136 60 -194 -1 -25 3 -47 8
-50 4 -3 20 -24 35 -45 23 -35 26 -48 26 -126 0 -85 -1 -89 -31 -121 -18 -19
-44 -52 -58 -74 -14 -22 -34 -47 -44 -55 -11 -9 -31 -36 -45 -61 -15 -25 -39
-63 -53 -85 -56 -83 -221 -337 -271 -417 -29 -47 -74 -118 -99 -158 -26 -41
-49 -86 -53 -101 l-6 -28 247 -2 c137 -2 288 -3 336 -3 l88 0 57 61 c31 33 79
85 106 115 26 30 106 114 177 187 71 73 143 157 160 187 40 70 52 77 100 54
21 -11 43 -19 48 -19 6 0 27 -11 47 -25 60 -41 82 -34 113 38 11 26 32 62 45
80 47 63 73 157 43 157 -25 0 -96 59 -134 112 -71 99 -103 158 -97 182 3 12 0
35 -7 51 -6 17 -13 46 -16 65 -3 19 -9 43 -14 52 -5 9 -6 24 -3 32 4 9 1 23
-6 31 -10 11 -8 20 9 41 12 15 21 37 21 49 0 12 9 47 19 78 20 58 18 97 -5 97
-15 0 -9 26 12 50 7 8 14 28 16 44 3 26 -3 34 -40 53 -2 1 6 15 18 31 12 17
19 35 16 41 -4 6 -2 11 5 11 7 0 10 12 7 32 -9 56 52 127 107 128 38 0 93 33
104 63 5 13 27 36 50 51 22 16 59 49 82 73 33 36 40 50 37 74 -3 16 -1 29 4
29 15 0 50 41 64 77 9 19 32 53 52 75 20 22 46 54 57 71 11 18 35 52 53 76 17
24 32 49 32 54 0 6 7 18 15 27 8 9 17 36 19 60 3 25 8 61 11 81 6 29 2 46 -18
82 -25 43 -25 46 -7 64 16 18 16 24 4 58 -7 22 -12 39 -11 40 22 4 44 30 51
61 4 21 19 60 32 85 28 54 30 69 9 69 -8 0 -12 6 -9 14 6 16 -12 56 -34 72
-12 9 -12 12 1 26 8 8 18 37 22 64 3 27 13 80 21 118 8 39 12 86 9 106 -5 32
-2 42 29 79 20 24 34 47 31 51 -3 5 7 19 22 33 97 86 122 106 152 121 25 14
32 23 29 40 -3 12 1 27 8 34 7 7 16 29 19 49 7 40 25 88 51 136 9 16 13 39 10
52 -3 12 1 39 9 59 13 31 14 53 5 142 -11 110 -10 125 18 186 18 39 32 49 32
22 0 -11 6 -14 23 -8 61 19 68 24 65 47 -3 22 -4 22 -198 24 -107 2 -271 8
-365 15 -108 8 -308 12 -547 10 -262 -2 -378 0 -378 7 0 7 -61 11 -184 11
l-184 0 -6 -27z"/>
</g>
</svg>
