<?xml version="1.0" standalone="no"?>
<!DOCTYPE svg PUBLIC "-//W3C//DTD SVG 20010904//EN"
 "http://www.w3.org/TR/2001/REC-SVG-20010904/DTD/svg10.dtd">
<svg version="1.0" xmlns="http://www.w3.org/2000/svg"
 width="404.000000pt" height="504.000000pt" viewBox="0 0 404.000000 504.000000"
 preserveAspectRatio="xMidYMid meet">

<g transform="translate(0.000000,504.000000) scale(0.100000,-0.100000)"
fill="#000000" stroke="none">
<path d="M2090 4209 c-23 -17 -37 -18 -160 -13 -139 7 -213 -3 -235 -31 -10
-13 -41 -11 -140 10 l-30 7 -43 -124 c-23 -69 -42 -132 -42 -142 0 -10 -8 -30
-18 -44 -42 -60 -64 -180 -52 -275 15 -112 13 -137 -8 -137 -23 0 -42 -19 -42
-41 0 -10 -18 -39 -40 -64 -22 -25 -42 -58 -45 -73 -3 -15 -19 -70 -35 -122
-17 -52 -34 -113 -40 -136 -7 -30 -23 -52 -60 -83 -51 -43 -67 -85 -35 -97 11
-4 12 -11 5 -24 -18 -33 -29 -103 -19 -121 12 -23 -6 -117 -29 -149 -10 -13
-33 -28 -50 -32 -18 -5 -32 -12 -32 -17 0 -4 9 -42 19 -83 24 -93 44 -294 35
-345 -4 -21 -13 -55 -22 -76 -13 -35 -13 -39 3 -57 10 -11 23 -20 29 -20 6 0
23 -10 37 -23 99 -85 101 -88 89 -102 -7 -8 -10 -23 -7 -32 3 -10 15 -45 26
-77 12 -33 21 -79 21 -104 0 -28 6 -52 17 -64 15 -16 15 -20 0 -35 -14 -16
-13 -22 6 -61 13 -28 16 -46 10 -50 -6 -4 -12 -21 -15 -39 -4 -26 -1 -33 16
-37 24 -6 94 4 213 29 77 16 87 16 165 0 133 -26 152 -33 183 -65 35 -37 54
-39 47 -5 -4 22 -1 25 27 25 24 0 32 -5 37 -25 8 -33 24 -37 161 -35 16 0 28
-11 42 -39 l20 -38 83 -7 c46 -4 137 -15 203 -24 l120 -18 10 -48 c11 -52 29
-71 114 -121 28 -16 51 -33 51 -36 0 -4 -7 -26 -16 -50 -10 -29 -13 -56 -8
-79 4 -19 7 -38 6 -43 -1 -4 1 -7 6 -8 4 0 58 -4 121 -8 94 -6 116 -10 127
-26 18 -24 26 -15 35 43 4 26 17 108 28 182 12 74 31 194 41 265 11 72 29 184
40 250 11 66 29 176 39 245 11 69 27 163 35 210 8 47 24 148 36 225 11 77 27
169 35 205 20 89 24 185 35 870 13 777 16 1038 10 1043 -3 3 -259 7 -570 10
-545 5 -566 5 -590 -14z"/>
</g>
</svg>
