<?xml version="1.0" standalone="no"?>
<!DOCTYPE svg PUBLIC "-//W3C//DTD SVG 20010904//EN"
 "http://www.w3.org/TR/2001/REC-SVG-20010904/DTD/svg10.dtd">
<svg version="1.0" xmlns="http://www.w3.org/2000/svg"
 width="512.000000pt" height="616.000000pt" viewBox="0 0 512.000000 616.000000"
 preserveAspectRatio="xMidYMid meet">

<g transform="translate(0.000000,616.000000) scale(0.100000,-0.100000)"
fill="#000000" stroke="none">
<path d="M3350 5462 c-30 -1 -95 -7 -145 -13 -49 -6 -166 -14 -260 -19 -93 -5
-242 -15 -330 -24 -219 -21 -538 -46 -725 -57 -85 -4 -191 -13 -235 -18 -44
-6 -114 -13 -155 -17 -41 -3 -86 -8 -100 -9 -14 -2 -32 -4 -40 -4 -15 -1 -140
-111 -140 -123 0 -4 10 -8 21 -10 30 -4 58 -46 63 -93 2 -22 20 -87 41 -144
43 -125 41 -137 -46 -212 -31 -28 -60 -61 -63 -74 -7 -28 9 -75 31 -92 9 -7
12 -13 6 -13 -15 0 -1 -58 21 -92 10 -15 16 -39 14 -55 -3 -26 -6 -28 -40 -25
-37 3 -38 2 -38 -29 0 -26 -11 -43 -57 -88 -53 -53 -57 -60 -64 -118 -5 -34
-20 -85 -34 -113 -35 -70 -43 -207 -14 -228 11 -7 19 -20 19 -29 0 -9 20 -38
45 -64 31 -33 45 -57 45 -76 0 -15 11 -41 25 -57 14 -16 25 -35 25 -41 0 -13
-28 -30 -43 -26 -11 2 -37 -63 -37 -92 0 -28 -17 -47 -43 -47 -18 0 -19 -5
-14 -52 4 -29 9 -79 13 -110 l7 -57 -54 -63 c-30 -35 -55 -65 -57 -68 -1 -2
-15 -5 -30 -6 -15 -1 -32 -2 -39 -3 -6 0 -20 -31 -32 -68 -11 -38 -26 -76 -34
-87 -18 -25 -10 -66 13 -66 16 0 34 -23 25 -32 -3 -2 -39 0 -82 5 -133 15
-138 15 -139 -10 -1 -13 5 -23 12 -23 29 0 36 -130 8 -158 -15 -15 -14 -18 32
-86 10 -15 10 -21 -1 -33 -12 -12 -12 -19 2 -48 14 -29 14 -44 5 -100 -9 -53
-8 -77 4 -122 8 -31 14 -84 13 -118 -2 -52 3 -71 32 -126 19 -35 39 -67 46
-72 6 -4 25 -30 43 -58 17 -28 40 -61 52 -72 45 -48 51 -65 38 -97 -7 -17 -10
-33 -6 -37 10 -10 100 57 124 93 28 43 58 62 108 68 22 3 56 12 77 21 44 18
89 19 105 3 7 -7 12 -28 12 -48 0 -19 11 -54 25 -78 35 -61 42 -131 19 -171
-10 -17 -24 -31 -31 -31 -28 0 -13 -50 27 -90 38 -38 50 -60 32 -60 -5 0 -8
-55 -7 -123 1 -113 3 -125 25 -155 13 -18 46 -46 72 -63 26 -17 66 -49 89 -71
36 -35 41 -44 36 -73 -4 -27 -1 -34 16 -42 13 -5 37 -6 57 -1 40 9 300 38 621
68 l217 21 102 -36 c57 -19 109 -40 116 -46 9 -7 40 -9 89 -5 68 6 84 3 143
-20 37 -15 77 -34 89 -41 12 -8 40 -17 62 -19 22 -3 66 -13 97 -24 51 -16 99
-17 77 -1 -4 3 -28 33 -53 66 -25 33 -51 66 -58 74 -23 24 -78 114 -137 226
-72 136 -84 155 -100 155 -7 0 -16 -11 -19 -25 -7 -29 -32 -33 -40 -7 -4 10
-21 23 -40 30 -27 10 -41 9 -77 -3 -24 -9 -54 -22 -66 -31 -21 -13 -23 -13
-23 5 0 29 92 65 144 56 74 -12 80 -12 108 2 18 9 28 22 28 36 0 12 -20 78
-45 147 -24 69 -52 155 -62 193 -10 37 -23 67 -30 67 -7 0 -24 -19 -37 -43
-29 -50 -73 -94 -83 -84 -5 6 13 37 49 82 5 6 26 33 48 61 l39 51 4 124 c4
118 6 128 40 200 45 93 111 158 215 209 57 28 72 40 72 58 0 13 -6 22 -15 22
-8 0 -29 14 -47 31 -18 17 -26 28 -18 24 9 -4 7 0 -3 8 -14 12 -40 15 -103 13
-62 -2 -84 1 -84 10 0 19 9 22 75 25 33 2 66 7 73 12 18 14 15 44 -9 76 -12
16 -19 37 -17 47 3 14 14 4 42 -41 21 -33 51 -79 67 -103 16 -23 29 -49 29
-56 0 -7 9 -21 20 -31 17 -16 25 -17 59 -7 21 7 55 23 75 37 20 14 40 25 43
25 7 0 26 23 59 73 28 43 54 154 54 235 0 31 5 86 10 122 5 35 7 66 5 68 -2 3
-15 -2 -29 -11 -20 -14 -26 -14 -42 -2 -16 12 -17 17 -6 32 6 10 17 29 22 42
6 13 22 37 35 53 14 16 25 42 25 56 0 65 34 125 118 210 48 47 92 102 103 127
20 45 81 111 111 121 10 3 18 8 18 12 0 21 96 106 142 126 32 14 70 42 92 67
122 138 154 171 181 187 23 14 34 33 49 80 10 34 24 66 31 70 11 6 11 16 2 50
-9 35 -15 42 -36 42 -24 0 -120 -49 -153 -78 -10 -8 -18 -11 -18 -6 0 14 30
54 40 54 5 0 31 13 59 29 27 16 64 31 83 33 33 3 33 4 55 88 27 101 32 203 14
283 -11 50 -18 61 -56 87 -43 30 -88 37 -128 21 -11 -4 -51 -1 -90 6 -40 7
-101 15 -137 18 -109 8 -112 9 -221 127 -57 60 -128 127 -160 148 -68 47 -100
84 -142 164 -52 100 -67 147 -74 226 -3 41 -11 79 -17 85 -6 5 -36 9 -66 7z"/>
</g>
</svg>
