<?xml version="1.0" standalone="no"?>
<!DOCTYPE svg PUBLIC "-//W3C//DTD SVG 20010904//EN"
 "http://www.w3.org/TR/2001/REC-SVG-20010904/DTD/svg10.dtd">
<svg version="1.0" xmlns="http://www.w3.org/2000/svg"
 width="284.000000pt" height="276.000000pt" viewBox="0 0 284.000000 276.000000"
 preserveAspectRatio="xMidYMid meet">

<g transform="translate(0.000000,276.000000) scale(0.100000,-0.100000)"
fill="#000000" stroke="none">
<path d="M909 2077 c5 -12 9 -70 10 -127 0 -58 7 -161 16 -230 8 -69 20 -199
25 -290 6 -91 15 -219 20 -285 6 -66 15 -183 20 -260 15 -206 27 -316 39 -347
12 -32 50 -38 72 -12 7 8 24 21 38 29 22 11 32 11 61 -2 67 -28 261 -46 268
-25 5 17 154 5 210 -17 29 -12 63 -21 75 -21 12 0 42 -11 67 -24 81 -42 114
-49 155 -31 21 8 48 15 60 15 38 0 115 40 127 66 9 20 18 24 55 24 30 0 45 -5
49 -15 9 -22 60 -18 83 6 16 18 20 19 28 5 7 -13 12 -13 41 1 24 12 35 26 44
57 6 22 15 46 19 51 4 6 9 26 11 45 3 34 2 35 -32 32 -19 -1 -80 -4 -135 -5
-96 -2 -104 0 -195 37 -163 67 -201 90 -279 171 -42 43 -103 93 -140 114 -135
78 -157 93 -215 141 -33 27 -73 70 -89 95 -30 46 -53 57 -63 30 -4 -8 -10 -15
-15 -15 -14 0 -10 22 6 34 13 9 2 24 -63 92 -65 69 -80 92 -99 148 -12 36 -17
66 -12 66 17 0 9 21 -17 45 -23 22 -33 24 -83 19 -31 -3 -62 -1 -69 4 -16 11
-26 73 -18 107 10 37 53 75 87 75 16 0 29 2 29 5 0 36 -123 211 -140 200 -5
-3 -11 -1 -15 5 -3 5 -15 10 -25 10 -16 0 -18 -4 -11 -23z"/>
</g>
</svg>
