<?xml version="1.0" standalone="no"?>
<!DOCTYPE svg PUBLIC "-//W3C//DTD SVG 20010904//EN"
 "http://www.w3.org/TR/2001/REC-SVG-20010904/DTD/svg10.dtd">
<svg version="1.0" xmlns="http://www.w3.org/2000/svg"
 width="264.000000pt" height="272.000000pt" viewBox="0 0 264.000000 272.000000"
 preserveAspectRatio="xMidYMid meet">

<g transform="translate(0.000000,272.000000) scale(0.100000,-0.100000)"
fill="#000000" stroke="none">
<path d="M1387 2050 c-8 -11 -17 -17 -20 -14 -8 9 -99 -5 -93 -14 2 -4 -12 -7
-32 -7 l-37 0 -3 -50 c-2 -27 -4 -65 -4 -82 -1 -18 -5 -34 -10 -34 -4 -1 -14
-2 -20 -3 -7 -1 -18 2 -24 6 -18 13 -218 77 -225 72 -4 -2 -7 -19 -7 -36 0
-18 -7 -68 -16 -112 -16 -74 -16 -79 1 -92 10 -7 32 -14 48 -14 28 0 76 -27
138 -76 27 -22 36 -57 17 -69 -5 -3 -10 -24 -10 -46 0 -24 4 -38 10 -34 27 17
-35 -86 -136 -224 -31 -44 -28 -63 14 -75 47 -13 59 -39 65 -140 4 -70 9 -94
26 -115 12 -14 31 -46 43 -69 19 -39 24 -43 48 -38 33 6 55 -14 66 -59 9 -40
43 -95 58 -95 7 0 23 12 37 26 36 39 107 86 134 89 13 1 23 -1 22 -6 -1 -4 14
-19 33 -34 33 -25 35 -25 43 -7 7 14 18 19 40 17 18 -1 37 0 44 2 16 6 25 66
24 160 -1 45 3 84 9 88 15 9 12 31 -6 49 -14 14 -14 18 0 38 9 12 16 31 16 41
0 11 11 22 30 29 17 5 35 19 41 29 10 20 49 138 70 214 6 22 15 50 20 63 5 13
9 34 9 47 0 14 15 41 34 62 18 21 41 55 50 77 11 27 20 36 31 32 8 -3 15 0 16
7 4 50 3 285 -1 285 -3 -1 -12 2 -21 6 -9 4 -35 3 -58 -3 -23 -5 -56 -7 -72
-4 -22 3 -42 -3 -70 -21 -49 -33 -64 -33 -119 4 -25 17 -68 37 -96 46 -38 11
-63 27 -92 59 -23 25 -43 45 -46 45 -3 0 -11 -9 -19 -20z"/>
</g>
</svg>
